<svg width="32" height="32" viewBox="0 0 32 32" fill="none" xmlns="http://www.w3.org/2000/svg">
<path d="M10 16H7.33333C6.23067 16 5.33333 16.8973 5.33333 18V20.6667C5.33333 21.7693 6.23067 22.6667 7.33333 22.6667H10C11.1027 22.6667 12 21.7693 12 20.6667V18C12 16.8973 11.1027 16 10 16ZM10.6667 20.6667C10.6667 21.0347 10.3667 21.3333 10 21.3333H7.33333C6.96667 21.3333 6.66667 21.0347 6.66667 20.6667V18C6.66667 17.632 6.96667 17.3333 7.33333 17.3333H10C10.3667 17.3333 10.6667 17.632 10.6667 18V20.6667ZM26 2.66667H24V0.666667C24 0.298667 23.7013 0 23.3333 0C22.9653 0 22.6667 0.298667 22.6667 0.666667V2.66667H9.33333V0.666667C9.33333 0.298667 9.03467 0 8.66667 0C8.29867 0 8 0.298667 8 0.666667V2.66667H6C2.692 2.66667 0 5.35867 0 8.66667V26C0 29.308 2.692 32 6 32H26C29.308 32 32 29.308 32 26V8.66667C32 5.35867 29.308 2.66667 26 2.66667ZM6 4H26C28.5733 4 30.6667 6.09333 30.6667 8.66667V10.6667H1.33333V8.66667C1.33333 6.09333 3.42667 4 6 4ZM26 30.6667H6C3.42667 30.6667 1.33333 28.5733 1.33333 26V12H30.6667V26C30.6667 28.5733 28.5733 30.6667 26 30.6667Z" fill="white" style="fill:white;fill-opacity:1;"/>
</svg>
